<svg version="1.1" id="Layer_1" xmlns="http://www.w3.org/2000/svg" xmlns:xlink="http://www.w3.org/1999/xlink" x="0px" y="0px"
	 width="100%" viewBox="0 0 800 322" enable-background="new 0 0 800 322" xml:space="preserve">
<path fill="#FFFFFF" opacity="1.000000" stroke="none" 
	d="
M801.000000,148.000000 
	C801.000000,157.020889 801.000000,166.041794 800.531372,175.531219 
	C751.404236,175.999771 702.745728,175.999771 654.000000,175.999771 
	C654.000000,225.502625 654.000000,274.251312 654.000000,323.000000 
	C643.645752,323.000000 633.291565,323.000000 622.468994,322.531342 
	C622.000671,273.468567 622.000671,224.874435 622.000671,176.295807 
	C572.708618,176.295807 523.980225,176.295807 475.000000,176.295807 
	C475.000000,225.394119 475.000000,274.197052 475.000000,323.000000 
	C464.312439,323.000000 453.624878,323.000000 442.468750,322.531342 
	C442.000183,273.487976 442.000183,224.913239 442.000183,176.263428 
	C430.099457,176.263428 418.704926,176.263428 406.876465,176.263428 
	C406.876465,206.181595 406.876465,235.838943 406.876465,266.284088 
	C404.300201,262.926117 402.133301,260.364288 400.251526,257.607849 
	C383.945068,233.721603 367.242645,210.085983 351.681122,185.722336 
	C346.764496,178.024689 341.787170,175.020798 332.906433,175.816757 
	C323.727692,176.639420 314.417908,175.999710 305.000000,175.999710 
	C305.000000,225.431030 305.000000,274.215515 305.000000,323.000000 
	C277.979095,323.000000 250.958206,323.000000 223.630493,322.614502 
	C242.858521,320.186920 259.167419,312.160126 271.786865,296.784637 
	C286.783203,278.513184 291.519287,257.928650 287.077393,234.857224 
	C282.571838,211.455185 269.734497,194.467484 248.481033,183.945251 
	C234.457703,177.002548 219.707184,174.987732 204.008575,176.826859 
	C183.528168,179.226151 166.921448,188.550232 154.541458,204.267654 
	C140.523819,222.064224 135.956360,242.791840 140.974747,265.233551 
	C146.782837,291.206757 162.385300,308.714630 187.175201,317.953949 
	C193.235229,320.212555 199.713837,321.348114 206.000000,323.000000 
	C137.761078,323.000000 69.522141,323.000000 1.000000,323.000000 
	C1.000000,285.979584 1.000000,248.958450 1.468657,211.468781 
	C18.530603,211.000229 35.123890,211.000229 52.132195,211.000229 
	C52.132195,248.274872 52.132195,284.994843 52.132195,321.708679 
	C63.951729,321.708679 75.347565,321.708679 87.160049,321.708679 
	C87.160049,284.699127 87.160049,247.979263 87.160049,210.829483 
	C104.308174,210.829483 121.038589,210.829483 137.683517,210.829483 
	C137.683517,198.996292 137.683517,187.599808 137.683517,176.000000 
	C91.911453,176.000000 46.455727,176.000000 1.000000,176.000000 
	C1.000000,117.706001 1.000000,59.411995 1.000000,1.000000 
	C158.687546,1.000000 316.375122,1.000000 474.531342,1.468657 
	C475.000000,50.527729 475.000000,99.118141 475.000000,147.698517 
	C524.293701,147.698517 573.017334,147.698517 622.000000,147.698517 
	C622.000000,98.598328 622.000000,49.799164 622.000000,1.000000 
	C632.354248,1.000000 642.708435,1.000000 653.531372,1.468657 
	C654.000000,50.533302 654.000000,99.129288 654.000000,148.000000 
	C703.390503,148.000000 752.195251,148.000000 801.000000,148.000000 
M36.035851,89.004822 
	C66.596870,89.004822 97.157883,89.004822 127.704651,89.004822 
	C127.704651,79.047684 127.704651,69.656746 127.704651,59.963356 
	C96.642570,59.963356 65.875313,59.963356 35.011135,59.035824 
	C35.044598,50.701668 35.078060,42.367508 36.034428,34.003700 
	C66.619667,34.003700 97.204903,34.003700 127.650131,34.003700 
	C127.650131,23.615295 127.650131,13.882780 127.650131,4.369426 
	C85.572891,4.369426 43.846367,4.369426 2.211978,4.369426 
	C2.211978,51.680107 2.211978,98.620705 2.211978,145.768082 
	C44.149525,145.768082 85.875046,145.768082 127.741821,145.768082 
	C127.741821,136.138260 127.741821,126.741707 127.741821,116.963356 
	C96.692642,116.963356 65.900337,116.963356 35.011131,116.035805 
	C35.045120,107.034927 35.079113,98.034042 36.035851,89.004822 
M307.953766,120.434227 
	C312.477844,124.912964 316.508728,130.077621 321.613678,133.748581 
	C341.002014,147.690704 362.880402,152.384079 385.951080,146.784103 
	C424.485687,137.430603 446.542328,104.975044 441.763611,64.376350 
	C439.670715,46.595833 431.226654,31.471228 417.187836,19.545225 
	C397.897705,3.158215 375.439941,-1.387816 351.667023,3.474233 
	C326.422882,8.637163 307.729858,23.470705 297.968201,48.157825 
	C292.398071,62.244675 291.782104,76.594017 294.644165,91.415741 
	C296.694885,102.035950 301.871216,111.012466 307.953766,120.434227 
M211.608139,2.000108 
	C206.624557,2.667631 201.492111,2.788243 196.683167,4.097311 
	C175.822067,9.776040 159.352890,21.321335 149.471390,41.069946 
	C142.936035,54.131126 140.346222,67.761269 141.804382,82.551056 
	C143.440674,99.147766 149.790604,113.345871 160.914093,125.251953 
	C179.824203,145.492477 204.022369,151.138062 230.549362,147.855164 
	C251.811615,145.223816 267.034363,132.690765 278.977936,115.585526 
	C280.527954,113.365608 280.117645,112.378281 277.973297,110.931343 
	C270.363312,105.796387 262.913757,100.423637 255.395615,95.135468 
	C235.033585,127.618011 198.716522,121.573174 183.793076,102.200111 
	C170.375259,84.781624 170.314972,56.544987 191.043533,40.854385 
	C210.686279,25.985708 236.498337,28.410179 254.006470,55.372597 
	C262.771606,49.392517 271.526306,43.419575 280.253540,37.465351 
	C279.283386,35.851006 278.675690,34.717125 277.955414,33.659977 
	C269.989044,21.968142 260.359955,12.348092 246.722153,7.234245 
	C235.653351,3.083706 224.314301,1.442300 211.608139,2.000108 
z"/>
<path fill="#009645" opacity="1.000000" stroke="none" 
	d="
M621.531372,1.000000 
	C622.000000,49.799164 622.000000,98.598328 622.000000,147.698517 
	C573.017334,147.698517 524.293701,147.698517 475.000000,147.698517 
	C475.000000,99.118141 475.000000,50.527729 475.000000,1.468657 
	C523.687561,1.000000 572.375122,1.000000 621.531372,1.000000 
z"/>
<path fill="#009645" opacity="1.000000" stroke="none" 
	d="
M801.000000,147.531342 
	C752.195251,148.000000 703.390503,148.000000 654.000000,148.000000 
	C654.000000,99.129288 654.000000,50.533302 654.000000,1.468657 
	C702.927002,1.000000 751.854004,1.000000 801.000000,1.000000 
	C801.000000,49.687344 801.000000,98.375015 801.000000,147.531342 
z"/>
<path fill="#363031" opacity="1.000000" stroke="none" 
	d="
M654.468628,323.000000 
	C654.000000,274.251312 654.000000,225.502625 654.000000,175.999771 
	C702.745728,175.999771 751.404236,175.999771 800.531372,175.999878 
	C801.000000,224.926987 801.000000,273.853973 801.000000,323.000000 
	C752.312683,323.000000 703.625000,323.000000 654.468628,323.000000 
z"/>
<path fill="#363031" opacity="1.000000" stroke="none" 
	d="
M475.468658,323.000000 
	C475.000000,274.197052 475.000000,225.394119 475.000000,176.295807 
	C523.980225,176.295807 572.708618,176.295807 622.000671,176.295807 
	C622.000671,224.874435 622.000671,273.468567 622.000366,322.531342 
	C573.312439,323.000000 524.624878,323.000000 475.468658,323.000000 
z"/>
<path fill="#363031" opacity="1.000000" stroke="none" 
	d="
M305.468658,323.000000 
	C305.000000,274.215515 305.000000,225.431030 305.000000,175.999710 
	C314.417908,175.999710 323.727692,176.639420 332.906433,175.816757 
	C341.787170,175.020798 346.764496,178.024689 351.681122,185.722336 
	C367.242645,210.085983 383.945068,233.721603 400.251526,257.607849 
	C402.133301,260.364288 404.300201,262.926117 406.876465,266.284088 
	C406.876465,235.838943 406.876465,206.181595 406.876465,176.263428 
	C418.704926,176.263428 430.099457,176.263428 442.000183,176.263428 
	C442.000183,224.913239 442.000183,273.487976 442.000092,322.531342 
	C428.979095,323.000000 415.958221,323.000000 402.465332,322.634949 
	C381.686737,292.553375 361.380157,262.836823 340.808044,232.950317 
	C340.361694,234.026108 340.024048,235.271774 340.023010,236.517700 
	C339.999664,265.040802 340.013031,293.563934 340.010864,322.315216 
	C340.002197,322.543365 340.000000,323.000000 340.000000,323.000000 
	C328.645782,323.000000 317.291534,323.000000 305.468658,323.000000 
z"/>
<path fill="#363031" opacity="1.000000" stroke="none" 
	d="
M206.467606,323.000000 
	C199.713837,321.348114 193.235229,320.212555 187.175201,317.953949 
	C162.385300,308.714630 146.782837,291.206757 140.974747,265.233551 
	C135.956360,242.791840 140.523819,222.064224 154.541458,204.267654 
	C166.921448,188.550232 183.528168,179.226151 204.008575,176.826859 
	C219.707184,174.987732 234.457703,177.002548 248.481033,183.945251 
	C269.734497,194.467484 282.571838,211.455185 287.077393,234.857224 
	C291.519287,257.928650 286.783203,278.513184 271.786865,296.784637 
	C259.167419,312.160126 242.858521,320.186920 223.161835,322.614502 
	C217.645065,323.000000 212.290146,323.000000 206.467606,323.000000 
M173.000488,242.852356 
	C173.331940,248.751602 172.818466,254.849991 174.153244,260.512726 
	C178.157684,277.501038 188.941040,288.893494 206.175797,291.704681 
	C222.643509,294.390808 237.387177,289.428284 247.378082,275.025635 
	C258.949799,258.344147 258.269257,234.605103 244.005035,219.667068 
	C227.759445,202.654053 201.795685,202.052017 184.637115,218.929840 
	C178.236465,225.225800 174.768677,233.196228 173.000488,242.852356 
z"/>
<path fill="#363031" opacity="1.000000" stroke="none" 
	d="
M1.000000,176.468658 
	C46.455727,176.000000 91.911453,176.000000 137.683517,176.000000 
	C137.683517,187.599808 137.683517,198.996292 137.683517,210.829483 
	C121.038589,210.829483 104.308174,210.829483 87.160049,210.829483 
	C87.160049,247.979263 87.160049,284.699127 87.160049,321.708679 
	C75.347565,321.708679 63.951729,321.708679 52.132195,321.708679 
	C52.132195,284.994843 52.132195,248.274872 52.132195,211.000229 
	C35.123890,211.000229 18.530603,211.000229 1.468657,211.000122 
	C1.000000,199.645767 1.000000,188.291550 1.000000,176.468658 
z"/>
<path fill="#FFFFFF" opacity="1.000000" stroke="none" 
	d="
M340.468658,323.000000 
	C340.000000,323.000000 340.002197,322.543365 340.405609,322.113220 
	C340.872681,319.864349 340.989655,318.045685 340.992035,316.226898 
	C341.028046,288.524689 341.049042,260.822510 341.073578,233.120300 
	C361.380157,262.836823 381.686737,292.553375 401.996674,322.634949 
	C381.645782,323.000000 361.291534,323.000000 340.468658,323.000000 
z"/>
<path fill="#009645" opacity="1.000000" stroke="none" 
	d="
M35.108047,59.963356 
	C65.875313,59.963356 96.642570,59.963356 127.704651,59.963356 
	C127.704651,69.656746 127.704651,79.047684 127.704651,89.004822 
	C97.157883,89.004822 66.596870,89.004822 35.248539,89.282524 
	C34.307484,97.000137 34.080933,104.439804 34.055237,111.880157 
	C34.049389,113.573326 34.738686,115.268890 35.108028,116.963356 
	C65.900337,116.963356 96.692642,116.963356 127.741821,116.963356 
	C127.741821,126.741707 127.741821,136.138260 127.741821,145.768082 
	C85.875046,145.768082 44.149525,145.768082 2.211978,145.768082 
	C2.211978,98.620705 2.211978,51.680107 2.211978,4.369426 
	C43.846367,4.369426 85.572891,4.369426 127.650131,4.369426 
	C127.650131,13.882780 127.650131,23.615295 127.650131,34.003700 
	C97.204903,34.003700 66.619667,34.003700 35.247360,34.282303 
	C34.306862,40.671024 34.036846,46.781559 34.058865,52.891045 
	C34.067368,55.249710 34.738697,57.605991 35.108047,59.963356 
z"/>
<path fill="#009645" opacity="1.000000" stroke="none" 
	d="
M307.686279,120.186584 
	C301.871216,111.012466 296.694885,102.035950 294.644165,91.415741 
	C291.782104,76.594017 292.398071,62.244675 297.968201,48.157825 
	C307.729858,23.470705 326.422882,8.637163 351.667023,3.474233 
	C375.439941,-1.387816 397.897705,3.158215 417.187836,19.545225 
	C431.226654,31.471228 439.670715,46.595833 441.763611,64.376350 
	C446.542328,104.975044 424.485687,137.430603 385.951080,146.784103 
	C362.880402,152.384079 341.002014,147.690704 321.613678,133.748581 
	C316.508728,130.077621 312.477844,124.912964 307.686279,120.186584 
M335.431976,102.952034 
	C339.333740,106.179024 342.956604,109.841774 347.189606,112.551292 
	C359.871185,120.668709 373.578369,120.219322 386.223846,113.671234 
	C403.840302,104.549095 411.430725,86.187447 408.172638,66.682510 
	C404.680145,45.774277 383.511810,29.772757 362.369537,32.852985 
	C341.658356,35.870411 326.762054,53.055843 326.130615,74.179100 
	C325.825928,84.370148 328.546204,94.082909 335.431976,102.952034 
z"/>
<path fill="#009645" opacity="1.000000" stroke="none" 
	d="
M212.094604,2.000124 
	C224.314301,1.442300 235.653351,3.083706 246.722153,7.234245 
	C260.359955,12.348092 269.989044,21.968142 277.955414,33.659977 
	C278.675690,34.717125 279.283386,35.851006 280.253540,37.465351 
	C271.526306,43.419575 262.771606,49.392517 254.006470,55.372597 
	C236.498337,28.410179 210.686279,25.985708 191.043533,40.854385 
	C170.314972,56.544987 170.375259,84.781624 183.793076,102.200111 
	C198.716522,121.573174 235.033585,127.618011 255.395615,95.135468 
	C262.913757,100.423637 270.363312,105.796387 277.973297,110.931343 
	C280.117645,112.378281 280.527954,113.365608 278.977936,115.585526 
	C267.034363,132.690765 251.811615,145.223816 230.549362,147.855164 
	C204.022369,151.138062 179.824203,145.492477 160.914093,125.251953 
	C149.790604,113.345871 143.440674,99.147766 141.804382,82.551056 
	C140.346222,67.761269 142.936035,54.131126 149.471390,41.069946 
	C159.352890,21.321335 175.822067,9.776040 196.683167,4.097311 
	C201.492111,2.788243 206.624557,2.667631 212.094604,2.000124 
z"/>
<path fill="#009326" opacity="1.000000" stroke="none" 
	d="
M35.059578,116.499580 
	C34.738686,115.268890 34.049389,113.573326 34.055237,111.880157 
	C34.080933,104.439804 34.307484,97.000137 34.787167,89.296692 
	C35.079113,98.034042 35.045120,107.034927 35.059578,116.499580 
z"/>
<path fill="#009326" opacity="1.000000" stroke="none" 
	d="
M35.059593,59.499588 
	C34.738697,57.605991 34.067368,55.249710 34.058865,52.891045 
	C34.036846,46.781559 34.306862,40.671024 34.785908,34.297127 
	C35.078060,42.367508 35.044598,50.701668 35.059593,59.499588 
z"/>
<path fill="#010101" opacity="1.000000" stroke="none" 
	d="
M340.808044,232.950317 
	C341.049042,260.822510 341.028046,288.524689 340.992035,316.226898 
	C340.989655,318.045685 340.872681,319.864349 340.414276,321.885071 
	C340.013031,293.563934 339.999664,265.040802 340.023010,236.517700 
	C340.024048,235.271774 340.361694,234.026108 340.808044,232.950317 
z"/>
<path fill="#FFFFFF" opacity="1.000000" stroke="none" 
	d="
M173.001770,242.392975 
	C174.768677,233.196228 178.236465,225.225800 184.637115,218.929840 
	C201.795685,202.052017 227.759445,202.654053 244.005035,219.667068 
	C258.269257,234.605103 258.949799,258.344147 247.378082,275.025635 
	C237.387177,289.428284 222.643509,294.390808 206.175797,291.704681 
	C188.941040,288.893494 178.157684,277.501038 174.153244,260.512726 
	C172.818466,254.849991 173.331940,248.751602 173.001770,242.392975 
z"/>
<path fill="#FFFFFF" opacity="1.000000" stroke="none" 
	d="
M335.187073,102.683296 
	C328.546204,94.082909 325.825928,84.370148 326.130615,74.179100 
	C326.762054,53.055843 341.658356,35.870411 362.369537,32.852985 
	C383.511810,29.772757 404.680145,45.774277 408.172638,66.682510 
	C411.430725,86.187447 403.840302,104.549095 386.223846,113.671234 
	C373.578369,120.219322 359.871185,120.668709 347.189606,112.551292 
	C342.956604,109.841774 339.333740,106.179024 335.187073,102.683296 
z"/>
</svg>